<svg width="50" height="50" viewBox="0 0 50 50" fill="none" xmlns="http://www.w3.org/2000/svg">
<path d="M47.083 24.8478C48.694 24.8478 50.0176 26.1582 49.83 27.7583C49.3712 31.6724 47.9915 35.4374 45.7867 38.737C43.0397 42.8483 39.1352 46.0526 34.5671 47.9448C29.9989 49.837 24.9723 50.332 20.1227 49.3674C15.2732 48.4028 10.8186 46.0218 7.32233 42.5254C3.82602 39.0291 1.445 34.5746 0.480368 29.725C-0.484263 24.8755 0.0108209 19.8488 1.90301 15.2807C3.7952 10.7125 6.99952 6.80807 11.1107 4.06104C14.4104 1.85627 18.1753 0.476559 22.0895 0.0177572C23.6896 -0.169797 25 1.15378 25 2.76481V2.76481C25 4.37584 23.6866 5.65913 22.0942 5.90339C19.3361 6.32645 16.6915 7.34866 14.352 8.91188C11.2002 11.0179 8.74361 14.0112 7.29298 17.5133C5.84236 21.0154 5.46281 24.869 6.20233 28.5869C6.94185 32.3047 8.76723 35.7197 11.4476 38.4001C14.128 41.0805 17.5431 42.9059 21.2609 43.6454C24.9787 44.385 28.8324 44.0054 32.3345 42.5548C35.8366 41.1042 38.8299 38.6476 40.9359 35.4958C42.4991 33.1563 43.5213 30.5117 43.9444 27.7536C44.1886 26.1612 45.4719 24.8478 47.083 24.8478V24.8478Z" fill="black"/>
</svg>
